<svg width="480" height="73" viewBox="0 0 480 73" fill="none" xmlns="http://www.w3.org/2000/svg">
<path d="M0 57.508C0 65.858 8.954 72.627 20 72.627H460C471.046 72.627 480 65.858 480 57.508V15.224C480 6.874 471.046 0.10498 460 0.10498H20C8.954 0.10498 0 6.874 0 15.224V57.508Z" fill="#ED4040"/>
<path d="M94.2895 34.1791C94.2895 34.9911 94.0095 35.6677 93.4495 36.2091C92.8988 36.7411 92.0542 37.0071 90.9155 37.0071H89.0395V41.0811H87.7655V31.3231H90.9155C92.0168 31.3231 92.8522 31.5891 93.4215 32.1211C94.0002 32.6531 94.2895 33.3391 94.2895 34.1791ZM90.9155 35.9571C91.6248 35.9571 92.1475 35.8031 92.4835 35.4951C92.8195 35.1871 92.9875 34.7484 92.9875 34.1791C92.9875 32.9751 92.2968 32.3731 90.9155 32.3731H89.0395V35.9571H90.9155ZM95.3969 37.2171C95.3969 36.4331 95.5556 35.7471 95.8729 35.1591C96.1903 34.5617 96.6243 34.0997 97.1749 33.7731C97.7349 33.4464 98.3556 33.2831 99.0369 33.2831C99.7089 33.2831 100.292 33.4277 100.787 33.7171C101.282 34.0064 101.65 34.3704 101.893 34.8091V33.4091H103.181V41.0811H101.893V39.6531C101.641 40.1011 101.263 40.4744 100.759 40.7731C100.264 41.0624 99.6856 41.2071 99.0229 41.2071C98.3416 41.2071 97.7256 41.0391 97.1749 40.7031C96.6243 40.3671 96.1903 39.8957 95.8729 39.2891C95.5556 38.6824 95.3969 37.9917 95.3969 37.2171ZM101.893 37.2311C101.893 36.6524 101.776 36.1484 101.543 35.7191C101.31 35.2897 100.992 34.9631 100.591 34.7391C100.199 34.5057 99.7649 34.3891 99.2889 34.3891C98.8129 34.3891 98.3789 34.5011 97.9869 34.7251C97.5949 34.9491 97.2823 35.2757 97.0489 35.7051C96.8156 36.1344 96.6989 36.6384 96.6989 37.2171C96.6989 37.8051 96.8156 38.3184 97.0489 38.7571C97.2823 39.1864 97.5949 39.5177 97.9869 39.7511C98.3789 39.9751 98.8129 40.0871 99.2889 40.0871C99.7649 40.0871 100.199 39.9751 100.591 39.7511C100.992 39.5177 101.31 39.1864 101.543 38.7571C101.776 38.3184 101.893 37.8097 101.893 37.2311ZM108.05 41.2071C107.462 41.2071 106.935 41.1091 106.468 40.9131C106.001 40.7077 105.633 40.4277 105.362 40.0731C105.091 39.7091 104.942 39.2937 104.914 38.8271H106.23C106.267 39.2097 106.445 39.5224 106.762 39.7651C107.089 40.0077 107.513 40.1291 108.036 40.1291C108.521 40.1291 108.904 40.0217 109.184 39.8071C109.464 39.5924 109.604 39.3217 109.604 38.9951C109.604 38.6591 109.455 38.4117 109.156 38.2531C108.857 38.0851 108.395 37.9217 107.77 37.7631C107.201 37.6137 106.734 37.4644 106.37 37.3151C106.015 37.1564 105.707 36.9277 105.446 36.6291C105.194 36.3211 105.068 35.9197 105.068 35.4251C105.068 35.0331 105.185 34.6737 105.418 34.3471C105.651 34.0204 105.983 33.7637 106.412 33.5771C106.841 33.3811 107.331 33.2831 107.882 33.2831C108.731 33.2831 109.417 33.4977 109.94 33.9271C110.463 34.3564 110.743 34.9444 110.78 35.6911H109.506C109.478 35.2897 109.315 34.9677 109.016 34.7251C108.727 34.4824 108.335 34.3611 107.84 34.3611C107.383 34.3611 107.019 34.4591 106.748 34.6551C106.477 34.8511 106.342 35.1077 106.342 35.4251C106.342 35.6771 106.421 35.8871 106.58 36.0551C106.748 36.2137 106.953 36.3444 107.196 36.4471C107.448 36.5404 107.793 36.6477 108.232 36.7691C108.783 36.9184 109.231 37.0677 109.576 37.2171C109.921 37.3571 110.215 37.5717 110.458 37.8611C110.71 38.1504 110.841 38.5284 110.85 38.9951C110.85 39.4151 110.733 39.7931 110.5 40.1291C110.267 40.4651 109.935 40.7311 109.506 40.9271C109.086 41.1137 108.601 41.2071 108.05 41.2071ZM115.364 41.2071C114.776 41.2071 114.249 41.1091 113.782 40.9131C113.316 40.7077 112.947 40.4277 112.676 40.0731C112.406 39.7091 112.256 39.2937 112.228 38.8271H113.544C113.582 39.2097 113.759 39.5224 114.076 39.7651C114.403 40.0077 114.828 40.1291 115.35 40.1291C115.836 40.1291 116.218 40.0217 116.498 39.8071C116.778 39.5924 116.918 39.3217 116.918 38.9951C116.918 38.6591 116.769 38.4117 116.47 38.2531C116.172 38.0851 115.71 37.9217 115.084 37.7631C114.515 37.6137 114.048 37.4644 113.684 37.3151C113.33 37.1564 113.022 36.9277 112.76 36.6291C112.508 36.3211 112.382 35.9197 112.382 35.4251C112.382 35.0331 112.499 34.6737 112.732 34.3471C112.966 34.0204 113.297 33.7637 113.726 33.5771C114.156 33.3811 114.646 33.2831 115.196 33.2831C116.046 33.2831 116.732 33.4977 117.254 33.9271C117.777 34.3564 118.057 34.9444 118.094 35.6911H116.82C116.792 35.2897 116.629 34.9677 116.33 34.7251C116.041 34.4824 115.649 34.3611 115.154 34.3611C114.697 34.3611 114.333 34.4591 114.062 34.6551C113.792 34.8511 113.656 35.1077 113.656 35.4251C113.656 35.6771 113.736 35.8871 113.894 36.0551C114.062 36.2137 114.268 36.3444 114.51 36.4471C114.762 36.5404 115.108 36.6477 115.546 36.7691C116.097 36.9184 116.545 37.0677 116.89 37.2171C117.236 37.3571 117.53 37.5717 117.772 37.8611C118.024 38.1504 118.155 38.5284 118.164 38.9951C118.164 39.4151 118.048 39.7931 117.814 40.1291C117.581 40.4651 117.25 40.7311 116.82 40.9271C116.4 41.1137 115.915 41.2071 115.364 41.2071ZM130.183 33.4091L127.789 41.0811H126.473L124.625 34.9911L122.777 41.0811H121.461L119.053 33.4091H120.355L122.119 39.8491L124.023 33.4091H125.325L127.187 39.8631L128.923 33.4091H130.183ZM134.793 41.2071C134.074 41.2071 133.421 41.0437 132.833 40.7171C132.254 40.3904 131.797 39.9284 131.461 39.3311C131.134 38.7244 130.971 38.0244 130.971 37.2311C130.971 36.4471 131.139 35.7564 131.475 35.1591C131.82 34.5524 132.287 34.0904 132.875 33.7731C133.463 33.4464 134.121 33.2831 134.849 33.2831C135.577 33.2831 136.235 33.4464 136.823 33.7731C137.411 34.0904 137.873 34.5477 138.209 35.1451C138.554 35.7424 138.727 36.4377 138.727 37.2311C138.727 38.0244 138.55 38.7244 138.195 39.3311C137.85 39.9284 137.378 40.3904 136.781 40.7171C136.184 41.0437 135.521 41.2071 134.793 41.2071ZM134.793 40.0871C135.25 40.0871 135.68 39.9797 136.081 39.7651C136.482 39.5504 136.804 39.2284 137.047 38.7991C137.299 38.3697 137.425 37.8471 137.425 37.2311C137.425 36.6151 137.304 36.0924 137.061 35.6631C136.818 35.2337 136.501 34.9164 136.109 34.7111C135.717 34.4964 135.292 34.3891 134.835 34.3891C134.368 34.3891 133.939 34.4964 133.547 34.7111C133.164 34.9164 132.856 35.2337 132.623 35.6631C132.39 36.0924 132.273 36.6151 132.273 37.2311C132.273 37.8564 132.385 38.3837 132.609 38.8131C132.842 39.2424 133.15 39.5644 133.533 39.7791C133.916 39.9844 134.336 40.0871 134.793 40.0871ZM141.676 34.6551C141.9 34.2164 142.218 33.8757 142.628 33.6331C143.048 33.3904 143.557 33.2691 144.154 33.2691V34.5851H143.818C142.39 34.5851 141.676 35.3597 141.676 36.9091V41.0811H140.402V33.4091H141.676V34.6551ZM145.149 37.2171C145.149 36.4331 145.308 35.7471 145.625 35.1591C145.942 34.5617 146.376 34.0997 146.927 33.7731C147.487 33.4464 148.112 33.2831 148.803 33.2831C149.4 33.2831 149.956 33.4231 150.469 33.7031C150.982 33.9737 151.374 34.3331 151.645 34.7811V30.7211H152.933V41.0811H151.645V39.6391C151.393 40.0964 151.02 40.4744 150.525 40.7731C150.03 41.0624 149.452 41.2071 148.789 41.2071C148.108 41.2071 147.487 41.0391 146.927 40.7031C146.376 40.3671 145.942 39.8957 145.625 39.2891C145.308 38.6824 145.149 37.9917 145.149 37.2171ZM151.645 37.2311C151.645 36.6524 151.528 36.1484 151.295 35.7191C151.062 35.2897 150.744 34.9631 150.343 34.7391C149.951 34.5057 149.517 34.3891 149.041 34.3891C148.565 34.3891 148.131 34.5011 147.739 34.7251C147.347 34.9491 147.034 35.2757 146.801 35.7051C146.568 36.1344 146.451 36.6384 146.451 37.2171C146.451 37.8051 146.568 38.3184 146.801 38.7571C147.034 39.1864 147.347 39.5177 147.739 39.7511C148.131 39.9751 148.565 40.0871 149.041 40.0871C149.517 40.0871 149.951 39.9751 150.343 39.7511C150.744 39.5177 151.062 39.1864 151.295 38.7571C151.528 38.3184 151.645 37.8097 151.645 37.2311ZM158.342 37.2171C158.342 36.4331 158.501 35.7471 158.818 35.1591C159.136 34.5617 159.57 34.0997 160.12 33.7731C160.68 33.4464 161.306 33.2831 161.996 33.2831C162.594 33.2831 163.149 33.4231 163.662 33.7031C164.176 33.9737 164.568 34.3331 164.838 34.7811V30.7211H166.126V41.0811H164.838V39.6391C164.586 40.0964 164.213 40.4744 163.718 40.7731C163.224 41.0624 162.645 41.2071 161.982 41.2071C161.301 41.2071 160.68 41.0391 160.12 40.7031C159.57 40.3671 159.136 39.8957 158.818 39.2891C158.501 38.6824 158.342 37.9917 158.342 37.2171ZM164.838 37.2311C164.838 36.6524 164.722 36.1484 164.488 35.7191C164.255 35.2897 163.938 34.9631 163.536 34.7391C163.144 34.5057 162.71 34.3891 162.234 34.3891C161.758 34.3891 161.324 34.5011 160.932 34.7251C160.54 34.9491 160.228 35.2757 159.994 35.7051C159.761 36.1344 159.644 36.6384 159.644 37.2171C159.644 37.8051 159.761 38.3184 159.994 38.7571C160.228 39.1864 160.54 39.5177 160.932 39.7511C161.324 39.9751 161.758 40.0871 162.234 40.0871C162.71 40.0871 163.144 39.9751 163.536 39.7511C163.938 39.5177 164.255 39.1864 164.488 38.7571C164.722 38.3184 164.838 37.8097 164.838 37.2311ZM171.625 41.2071C170.907 41.2071 170.253 41.0437 169.665 40.7171C169.087 40.3904 168.629 39.9284 168.293 39.3311C167.967 38.7244 167.803 38.0244 167.803 37.2311C167.803 36.4471 167.971 35.7564 168.307 35.1591C168.653 34.5524 169.119 34.0904 169.707 33.7731C170.295 33.4464 170.953 33.2831 171.681 33.2831C172.409 33.2831 173.067 33.4464 173.655 33.7731C174.243 34.0904 174.705 34.5477 175.041 35.1451C175.387 35.7424 175.559 36.4377 175.559 37.2311C175.559 38.0244 175.382 38.7244 175.027 39.3311C174.682 39.9284 174.211 40.3904 173.613 40.7171C173.016 41.0437 172.353 41.2071 171.625 41.2071ZM171.625 40.0871C172.083 40.0871 172.512 39.9797 172.913 39.7651C173.315 39.5504 173.637 39.2284 173.879 38.7991C174.131 38.3697 174.257 37.8471 174.257 37.2311C174.257 36.6151 174.136 36.0924 173.893 35.6631C173.651 35.2337 173.333 34.9164 172.941 34.7111C172.549 34.4964 172.125 34.3891 171.667 34.3891C171.201 34.3891 170.771 34.4964 170.379 34.7111C169.997 34.9164 169.689 35.2337 169.455 35.6631C169.222 36.0924 169.105 36.6151 169.105 37.2311C169.105 37.8564 169.217 38.3837 169.441 38.8131C169.675 39.2424 169.983 39.5644 170.365 39.7791C170.748 39.9844 171.168 40.0871 171.625 40.0871ZM184.234 36.9511C184.234 37.1937 184.22 37.4504 184.192 37.7211H178.06C178.107 38.4771 178.364 39.0697 178.83 39.4991C179.306 39.9191 179.88 40.1291 180.552 40.1291C181.103 40.1291 181.56 40.0031 181.924 39.7511C182.298 39.4897 182.559 39.1444 182.708 38.7151H184.08C183.875 39.4524 183.464 40.0544 182.848 40.5211C182.232 40.9784 181.467 41.2071 180.552 41.2071C179.824 41.2071 179.171 41.0437 178.592 40.7171C178.023 40.3904 177.575 39.9284 177.248 39.3311C176.922 38.7244 176.758 38.0244 176.758 37.2311C176.758 36.4377 176.917 35.7424 177.234 35.1451C177.552 34.5477 177.995 34.0904 178.564 33.7731C179.143 33.4464 179.806 33.2831 180.552 33.2831C181.28 33.2831 181.924 33.4417 182.484 33.7591C183.044 34.0764 183.474 34.5151 183.772 35.0751C184.08 35.6257 184.234 36.2511 184.234 36.9511ZM182.918 36.6851C182.918 36.1997 182.811 35.7844 182.596 35.4391C182.382 35.0844 182.088 34.8184 181.714 34.6411C181.35 34.4544 180.944 34.3611 180.496 34.3611C179.852 34.3611 179.302 34.5664 178.844 34.9771C178.396 35.3877 178.14 35.9571 178.074 36.6851H182.918ZM188.632 41.2071C188.044 41.2071 187.517 41.1091 187.05 40.9131C186.583 40.7077 186.215 40.4277 185.944 40.0731C185.673 39.7091 185.524 39.2937 185.496 38.8271H186.812C186.849 39.2097 187.027 39.5224 187.344 39.7651C187.671 40.0077 188.095 40.1291 188.618 40.1291C189.103 40.1291 189.486 40.0217 189.766 39.8071C190.046 39.5924 190.186 39.3217 190.186 38.9951C190.186 38.6591 190.037 38.4117 189.738 38.2531C189.439 38.0851 188.977 37.9217 188.352 37.7631C187.783 37.6137 187.316 37.4644 186.952 37.3151C186.597 37.1564 186.289 36.9277 186.028 36.6291C185.776 36.3211 185.65 35.9197 185.65 35.4251C185.65 35.0331 185.767 34.6737 186 34.3471C186.233 34.0204 186.565 33.7637 186.994 33.5771C187.423 33.3811 187.913 33.2831 188.464 33.2831C189.313 33.2831 189.999 33.4977 190.522 33.9271C191.045 34.3564 191.325 34.9444 191.362 35.6911H190.088C190.06 35.2897 189.897 34.9677 189.598 34.7251C189.309 34.4824 188.917 34.3611 188.422 34.3611C187.965 34.3611 187.601 34.4591 187.33 34.6551C187.059 34.8511 186.924 35.1077 186.924 35.4251C186.924 35.6771 187.003 35.8871 187.162 36.0551C187.33 36.2137 187.535 36.3444 187.778 36.4471C188.03 36.5404 188.375 36.6477 188.814 36.7691C189.365 36.9184 189.813 37.0677 190.158 37.2171C190.503 37.3571 190.797 37.5717 191.04 37.8611C191.292 38.1504 191.423 38.5284 191.432 38.9951C191.432 39.4151 191.315 39.7931 191.082 40.1291C190.849 40.4651 190.517 40.7311 190.088 40.9271C189.668 41.1137 189.183 41.2071 188.632 41.2071ZM200.701 33.2691C201.634 33.2691 202.39 33.5537 202.969 34.1231C203.547 34.6831 203.837 35.4951 203.837 36.5591V41.0811H202.577V36.7411C202.577 35.9757 202.385 35.3924 202.003 34.9911C201.62 34.5804 201.097 34.3751 200.435 34.3751C199.763 34.3751 199.226 34.5851 198.825 35.0051C198.433 35.4251 198.237 36.0364 198.237 36.8391V41.0811H196.963V33.4091H198.237V34.5011C198.489 34.1091 198.829 33.8057 199.259 33.5911C199.697 33.3764 200.178 33.2691 200.701 33.2691ZM209.264 41.2071C208.545 41.2071 207.892 41.0437 207.304 40.7171C206.725 40.3904 206.268 39.9284 205.932 39.3311C205.605 38.7244 205.442 38.0244 205.442 37.2311C205.442 36.4471 205.61 35.7564 205.946 35.1591C206.291 34.5524 206.758 34.0904 207.346 33.7731C207.934 33.4464 208.592 33.2831 209.32 33.2831C210.048 33.2831 210.706 33.4464 211.294 33.7731C211.882 34.0904 212.344 34.5477 212.68 35.1451C213.025 35.7424 213.198 36.4377 213.198 37.2311C213.198 38.0244 213.021 38.7244 212.666 39.3311C212.321 39.9284 211.849 40.3904 211.252 40.7171C210.655 41.0437 209.992 41.2071 209.264 41.2071ZM209.264 40.0871C209.721 40.0871 210.151 39.9797 210.552 39.7651C210.953 39.5504 211.275 39.2284 211.518 38.7991C211.77 38.3697 211.896 37.8471 211.896 37.2311C211.896 36.6151 211.775 36.0924 211.532 35.6631C211.289 35.2337 210.972 34.9164 210.58 34.7111C210.188 34.4964 209.763 34.3891 209.306 34.3891C208.839 34.3891 208.41 34.4964 208.018 34.7111C207.635 34.9164 207.327 35.2337 207.094 35.6631C206.861 36.0924 206.744 36.6151 206.744 37.2311C206.744 37.8564 206.856 38.3837 207.08 38.8131C207.313 39.2424 207.621 39.5644 208.004 39.7791C208.387 39.9844 208.807 40.0871 209.264 40.0871ZM216.427 34.4591V38.9811C216.427 39.3544 216.506 39.6204 216.665 39.7791C216.824 39.9284 217.099 40.0031 217.491 40.0031H218.429V41.0811H217.281C216.572 41.0811 216.04 40.9177 215.685 40.5911C215.33 40.2644 215.153 39.7277 215.153 38.9811V34.4591H214.159V33.4091H215.153V31.4771H216.427V33.4091H218.429V34.4591H216.427ZM232.931 33.2691C233.528 33.2691 234.06 33.3951 234.527 33.6471C234.994 33.8897 235.362 34.2584 235.633 34.7531C235.904 35.2477 236.039 35.8497 236.039 36.5591V41.0811H234.779V36.7411C234.779 35.9757 234.588 35.3924 234.205 34.9911C233.832 34.5804 233.323 34.3751 232.679 34.3751C232.016 34.3751 231.489 34.5897 231.097 35.0191C230.705 35.4391 230.509 36.0504 230.509 36.8531V41.0811H229.249V36.7411C229.249 35.9757 229.058 35.3924 228.675 34.9911C228.302 34.5804 227.793 34.3751 227.149 34.3751C226.486 34.3751 225.959 34.5897 225.567 35.0191C225.175 35.4391 224.979 36.0504 224.979 36.8531V41.0811H223.705V33.4091H224.979V34.5151C225.231 34.1137 225.567 33.8057 225.987 33.5911C226.416 33.3764 226.888 33.2691 227.401 33.2691C228.045 33.2691 228.614 33.4137 229.109 33.7031C229.604 33.9924 229.972 34.4171 230.215 34.9771C230.43 34.4357 230.784 34.0157 231.279 33.7171C231.774 33.4184 232.324 33.2691 232.931 33.2691ZM237.653 37.2171C237.653 36.4331 237.811 35.7471 238.129 35.1591C238.446 34.5617 238.88 34.0997 239.431 33.7731C239.991 33.4464 240.611 33.2831 241.293 33.2831C241.965 33.2831 242.548 33.4277 243.043 33.7171C243.537 34.0064 243.906 34.3704 244.149 34.8091V33.4091H245.437V41.0811H244.149V39.6531C243.897 40.1011 243.519 40.4744 243.015 40.7731C242.52 41.0624 241.941 41.2071 241.279 41.2071C240.597 41.2071 239.981 41.0391 239.431 40.7031C238.88 40.3671 238.446 39.8957 238.129 39.2891C237.811 38.6824 237.653 37.9917 237.653 37.2171ZM244.149 37.2311C244.149 36.6524 244.032 36.1484 243.799 35.7191C243.565 35.2897 243.248 34.9631 242.847 34.7391C242.455 34.5057 242.021 34.3891 241.545 34.3891C241.069 34.3891 240.635 34.5011 240.243 34.7251C239.851 34.9491 239.538 35.2757 239.305 35.7051C239.071 36.1344 238.955 36.6384 238.955 37.2171C238.955 37.8051 239.071 38.3184 239.305 38.7571C239.538 39.1864 239.851 39.5177 240.243 39.7511C240.635 39.9751 241.069 40.0871 241.545 40.0871C242.021 40.0871 242.455 39.9751 242.847 39.7511C243.248 39.5177 243.565 39.1864 243.799 38.7571C244.032 38.3184 244.149 37.8097 244.149 37.2311ZM249.144 34.4591V38.9811C249.144 39.3544 249.223 39.6204 249.382 39.7791C249.54 39.9284 249.816 40.0031 250.208 40.0031H251.146V41.0811H249.998C249.288 41.0811 248.756 40.9177 248.402 40.5911C248.047 40.2644 247.87 39.7277 247.87 38.9811V34.4591H246.876V33.4091H247.87V31.4771H249.144V33.4091H251.146V34.4591H249.144ZM252.213 37.2311C252.213 36.4377 252.372 35.7471 252.689 35.1591C253.007 34.5617 253.445 34.0997 254.005 33.7731C254.575 33.4464 255.223 33.2831 255.951 33.2831C256.894 33.2831 257.669 33.5117 258.275 33.9691C258.891 34.4264 259.297 35.0611 259.493 35.8731H258.121C257.991 35.4064 257.734 35.0377 257.351 34.7671C256.978 34.4964 256.511 34.3611 255.951 34.3611C255.223 34.3611 254.635 34.6131 254.187 35.1171C253.739 35.6117 253.515 36.3164 253.515 37.2311C253.515 38.1551 253.739 38.8691 254.187 39.3731C254.635 39.8771 255.223 40.1291 255.951 40.1291C256.511 40.1291 256.978 39.9984 257.351 39.7371C257.725 39.4757 257.981 39.1024 258.121 38.6171H259.493C259.288 39.4011 258.877 40.0311 258.261 40.5071C257.645 40.9737 256.875 41.2071 255.951 41.2071C255.223 41.2071 254.575 41.0437 254.005 40.7171C253.445 40.3904 253.007 39.9284 252.689 39.3311C252.372 38.7337 252.213 38.0337 252.213 37.2311ZM265.001 33.2691C265.58 33.2691 266.103 33.3951 266.569 33.6471C267.036 33.8897 267.4 34.2584 267.661 34.7531C267.932 35.2477 268.067 35.8497 268.067 36.5591V41.0811H266.807V36.7411C266.807 35.9757 266.616 35.3924 266.233 34.9911C265.851 34.5804 265.328 34.3751 264.665 34.3751C263.993 34.3751 263.457 34.5851 263.055 35.0051C262.663 35.4251 262.467 36.0364 262.467 36.8391V41.0811H261.193V30.7211H262.467V34.5011C262.719 34.1091 263.065 33.8057 263.503 33.5911C263.951 33.3764 264.451 33.2691 265.001 33.2691ZM271.8 31.3231L271.646 38.3231H270.582L270.428 31.3231H271.8ZM271.17 41.1651C270.928 41.1651 270.722 41.0811 270.554 40.9131C270.386 40.7451 270.302 40.5397 270.302 40.2971C270.302 40.0544 270.386 39.8491 270.554 39.6811C270.722 39.5131 270.928 39.4291 271.17 39.4291C271.404 39.4291 271.6 39.5131 271.758 39.6811C271.926 39.8491 272.01 40.0544 272.01 40.2971C272.01 40.5397 271.926 40.7451 271.758 40.9131C271.6 41.0811 271.404 41.1651 271.17 41.1651ZM284.575 34.1791C284.575 34.9911 284.295 35.6677 283.735 36.2091C283.184 36.7411 282.339 37.0071 281.201 37.0071H279.325V41.0811H278.051V31.3231H281.201C282.302 31.3231 283.137 31.5891 283.707 32.1211C284.285 32.6531 284.575 33.3391 284.575 34.1791ZM281.201 35.9571C281.91 35.9571 282.433 35.8031 282.769 35.4951C283.105 35.1871 283.273 34.7484 283.273 34.1791C283.273 32.9751 282.582 32.3731 281.201 32.3731H279.325V35.9571H281.201ZM287.432 30.7211V41.0811H286.158V30.7211H287.432ZM296.603 36.9511C296.603 37.1937 296.589 37.4504 296.561 37.7211H290.429C290.476 38.4771 290.733 39.0697 291.199 39.4991C291.675 39.9191 292.249 40.1291 292.921 40.1291C293.472 40.1291 293.929 40.0031 294.293 39.7511C294.667 39.4897 294.928 39.1444 295.077 38.7151H296.449C296.244 39.4524 295.833 40.0544 295.217 40.5211C294.601 40.9784 293.836 41.2071 292.921 41.2071C292.193 41.2071 291.54 41.0437 290.961 40.7171C290.392 40.3904 289.944 39.9284 289.617 39.3311C289.291 38.7244 289.127 38.0244 289.127 37.2311C289.127 36.4377 289.286 35.7424 289.603 35.1451C289.921 34.5477 290.364 34.0904 290.933 33.7731C291.512 33.4464 292.175 33.2831 292.921 33.2831C293.649 33.2831 294.293 33.4417 294.853 33.7591C295.413 34.0764 295.843 34.5151 296.141 35.0751C296.449 35.6257 296.603 36.2511 296.603 36.9511ZM295.287 36.6851C295.287 36.1997 295.18 35.7844 294.965 35.4391C294.751 35.0844 294.457 34.8184 294.083 34.6411C293.719 34.4544 293.313 34.3611 292.865 34.3611C292.221 34.3611 291.671 34.5664 291.213 34.9771C290.765 35.3877 290.509 35.9571 290.443 36.6851H295.287ZM297.809 37.2171C297.809 36.4331 297.968 35.7471 298.285 35.1591C298.602 34.5617 299.036 34.0997 299.587 33.7731C300.147 33.4464 300.768 33.2831 301.449 33.2831C302.121 33.2831 302.704 33.4277 303.199 33.7171C303.694 34.0064 304.062 34.3704 304.305 34.8091V33.4091H305.593V41.0811H304.305V39.6531C304.053 40.1011 303.675 40.4744 303.171 40.7731C302.676 41.0624 302.098 41.2071 301.435 41.2071C300.754 41.2071 300.138 41.0391 299.587 40.7031C299.036 40.3671 298.602 39.8957 298.285 39.2891C297.968 38.6824 297.809 37.9917 297.809 37.2171ZM304.305 37.2311C304.305 36.6524 304.188 36.1484 303.955 35.7191C303.722 35.2897 303.404 34.9631 303.003 34.7391C302.611 34.5057 302.177 34.3891 301.701 34.3891C301.225 34.3891 300.791 34.5011 300.399 34.7251C300.007 34.9491 299.694 35.2757 299.461 35.7051C299.228 36.1344 299.111 36.6384 299.111 37.2171C299.111 37.8051 299.228 38.3184 299.461 38.7571C299.694 39.1864 300.007 39.5177 300.399 39.7511C300.791 39.9751 301.225 40.0871 301.701 40.0871C302.177 40.0871 302.611 39.9751 303.003 39.7511C303.404 39.5177 303.722 39.1864 303.955 38.7571C304.188 38.3184 304.305 37.8097 304.305 37.2311ZM310.462 41.2071C309.874 41.2071 309.347 41.1091 308.88 40.9131C308.413 40.7077 308.045 40.4277 307.774 40.0731C307.503 39.7091 307.354 39.2937 307.326 38.8271H308.642C308.679 39.2097 308.857 39.5224 309.174 39.7651C309.501 40.0077 309.925 40.1291 310.448 40.1291C310.933 40.1291 311.316 40.0217 311.596 39.8071C311.876 39.5924 312.016 39.3217 312.016 38.9951C312.016 38.6591 311.867 38.4117 311.568 38.2531C311.269 38.0851 310.807 37.9217 310.182 37.7631C309.613 37.6137 309.146 37.4644 308.782 37.3151C308.427 37.1564 308.119 36.9277 307.858 36.6291C307.606 36.3211 307.48 35.9197 307.48 35.4251C307.48 35.0331 307.597 34.6737 307.83 34.3471C308.063 34.0204 308.395 33.7637 308.824 33.5771C309.253 33.3811 309.743 33.2831 310.294 33.2831C311.143 33.2831 311.829 33.4977 312.352 33.9271C312.875 34.3564 313.155 34.9444 313.192 35.6911H311.918C311.89 35.2897 311.727 34.9677 311.428 34.7251C311.139 34.4824 310.747 34.3611 310.252 34.3611C309.795 34.3611 309.431 34.4591 309.16 34.6551C308.889 34.8511 308.754 35.1077 308.754 35.4251C308.754 35.6771 308.833 35.8871 308.992 36.0551C309.16 36.2137 309.365 36.3444 309.608 36.4471C309.86 36.5404 310.205 36.6477 310.644 36.7691C311.195 36.9184 311.643 37.0677 311.988 37.2171C312.333 37.3571 312.627 37.5717 312.87 37.8611C313.122 38.1504 313.253 38.5284 313.262 38.9951C313.262 39.4151 313.145 39.7931 312.912 40.1291C312.679 40.4651 312.347 40.7311 311.918 40.9271C311.498 41.1137 311.013 41.2071 310.462 41.2071ZM322.06 36.9511C322.06 37.1937 322.046 37.4504 322.018 37.7211H315.886C315.933 38.4771 316.19 39.0697 316.656 39.4991C317.132 39.9191 317.706 40.1291 318.378 40.1291C318.929 40.1291 319.386 40.0031 319.75 39.7511C320.124 39.4897 320.385 39.1444 320.534 38.7151H321.906C321.701 39.4524 321.29 40.0544 320.674 40.5211C320.058 40.9784 319.293 41.2071 318.378 41.2071C317.65 41.2071 316.997 41.0437 316.418 40.7171C315.849 40.3904 315.401 39.9284 315.074 39.3311C314.748 38.7244 314.584 38.0244 314.584 37.2311C314.584 36.4377 314.743 35.7424 315.06 35.1451C315.378 34.5477 315.821 34.0904 316.39 33.7731C316.969 33.4464 317.632 33.2831 318.378 33.2831C319.106 33.2831 319.75 33.4417 320.31 33.7591C320.87 34.0764 321.3 34.5151 321.598 35.0751C321.906 35.6257 322.06 36.2511 322.06 36.9511ZM320.744 36.6851C320.744 36.1997 320.637 35.7844 320.422 35.4391C320.208 35.0844 319.914 34.8184 319.54 34.6411C319.176 34.4544 318.77 34.3611 318.322 34.3611C317.678 34.3611 317.128 34.5664 316.67 34.9771C316.222 35.3877 315.966 35.9571 315.9 36.6851H320.744ZM329.028 34.4591V38.9811C329.028 39.3544 329.108 39.6204 329.266 39.7791C329.425 39.9284 329.7 40.0031 330.092 40.0031H331.03V41.0811H329.882C329.173 41.0811 328.641 40.9177 328.286 40.5911C327.932 40.2644 327.754 39.7277 327.754 38.9811V34.4591H326.76V33.4091H327.754V31.4771H329.028V33.4091H331.03V34.4591H329.028ZM333.848 34.6551C334.072 34.2164 334.389 33.8757 334.8 33.6331C335.22 33.3904 335.729 33.2691 336.326 33.2691V34.5851H335.99C334.562 34.5851 333.848 35.3597 333.848 36.9091V41.0811H332.574V33.4091H333.848V34.6551ZM344.405 33.4091L339.785 44.6931H338.469L339.981 40.9971L336.887 33.4091H338.301L340.709 39.6251L343.089 33.4091H344.405ZM348.942 37.2171C348.942 36.4331 349.101 35.7471 349.418 35.1591C349.735 34.5617 350.169 34.0997 350.72 33.7731C351.28 33.4464 351.901 33.2831 352.582 33.2831C353.254 33.2831 353.837 33.4277 354.332 33.7171C354.827 34.0064 355.195 34.3704 355.438 34.8091V33.4091H356.726V41.0811H355.438V39.6531C355.186 40.1011 354.808 40.4744 354.304 40.7731C353.809 41.0624 353.231 41.2071 352.568 41.2071C351.887 41.2071 351.271 41.0391 350.72 40.7031C350.169 40.3671 349.735 39.8957 349.418 39.2891C349.101 38.6824 348.942 37.9917 348.942 37.2171ZM355.438 37.2311C355.438 36.6524 355.321 36.1484 355.088 35.7191C354.855 35.2897 354.537 34.9631 354.136 34.7391C353.744 34.5057 353.31 34.3891 352.834 34.3891C352.358 34.3891 351.924 34.5011 351.532 34.7251C351.14 34.9491 350.827 35.2757 350.594 35.7051C350.361 36.1344 350.244 36.6384 350.244 37.2171C350.244 37.8051 350.361 38.3184 350.594 38.7571C350.827 39.1864 351.14 39.5177 351.532 39.7511C351.924 39.9751 352.358 40.0871 352.834 40.0871C353.31 40.0871 353.744 39.9751 354.136 39.7511C354.537 39.5177 354.855 39.1864 355.088 38.7571C355.321 38.3184 355.438 37.8097 355.438 37.2311ZM362.043 33.2831C362.705 33.2831 363.284 33.4277 363.779 33.7171C364.283 34.0064 364.656 34.3704 364.899 34.8091V33.4091H366.187V41.2491C366.187 41.9491 366.037 42.5697 365.739 43.1111C365.44 43.6617 365.011 44.0911 364.451 44.3991C363.9 44.7071 363.256 44.8611 362.519 44.8611C361.511 44.8611 360.671 44.6231 359.999 44.1471C359.327 43.6711 358.93 43.0224 358.809 42.2011H360.069C360.209 42.6677 360.498 43.0411 360.937 43.3211C361.375 43.6104 361.903 43.7551 362.519 43.7551C363.219 43.7551 363.788 43.5357 364.227 43.0971C364.675 42.6584 364.899 42.0424 364.899 41.2491V39.6391C364.647 40.0871 364.273 40.4604 363.779 40.7591C363.284 41.0577 362.705 41.2071 362.043 41.2071C361.361 41.2071 360.741 41.0391 360.181 40.7031C359.63 40.3671 359.196 39.8957 358.879 39.2891C358.561 38.6824 358.403 37.9917 358.403 37.2171C358.403 36.4331 358.561 35.7471 358.879 35.1591C359.196 34.5617 359.63 34.0997 360.181 33.7731C360.741 33.4464 361.361 33.2831 362.043 33.2831ZM364.899 37.2311C364.899 36.6524 364.782 36.1484 364.549 35.7191C364.315 35.2897 363.998 34.9631 363.597 34.7391C363.205 34.5057 362.771 34.3891 362.295 34.3891C361.819 34.3891 361.385 34.5011 360.993 34.7251C360.601 34.9491 360.288 35.2757 360.055 35.7051C359.821 36.1344 359.705 36.6384 359.705 37.2171C359.705 37.8051 359.821 38.3184 360.055 38.7571C360.288 39.1864 360.601 39.5177 360.993 39.7511C361.385 39.9751 361.819 40.0871 362.295 40.0871C362.771 40.0871 363.205 39.9751 363.597 39.7511C363.998 39.5177 364.315 39.1864 364.549 38.7571C364.782 38.3184 364.899 37.8097 364.899 37.2311ZM367.864 37.2171C367.864 36.4331 368.022 35.7471 368.34 35.1591C368.657 34.5617 369.091 34.0997 369.642 33.7731C370.202 33.4464 370.822 33.2831 371.504 33.2831C372.176 33.2831 372.759 33.4277 373.254 33.7171C373.748 34.0064 374.117 34.3704 374.36 34.8091V33.4091H375.648V41.0811H374.36V39.6531C374.108 40.1011 373.73 40.4744 373.226 40.7731C372.731 41.0624 372.152 41.2071 371.49 41.2071C370.808 41.2071 370.192 41.0391 369.642 40.7031C369.091 40.3671 368.657 39.8957 368.34 39.2891C368.022 38.6824 367.864 37.9917 367.864 37.2171ZM374.36 37.2311C374.36 36.6524 374.243 36.1484 374.01 35.7191C373.776 35.2897 373.459 34.9631 373.058 34.7391C372.666 34.5057 372.232 34.3891 371.756 34.3891C371.28 34.3891 370.846 34.5011 370.454 34.7251C370.062 34.9491 369.749 35.2757 369.516 35.7051C369.282 36.1344 369.166 36.6384 369.166 37.2171C369.166 37.8051 369.282 38.3184 369.516 38.7571C369.749 39.1864 370.062 39.5177 370.454 39.7511C370.846 39.9751 371.28 40.0871 371.756 40.0871C372.232 40.0871 372.666 39.9751 373.058 39.7511C373.459 39.5177 373.776 39.1864 374.01 38.7571C374.243 38.3184 374.36 37.8097 374.36 37.2311ZM378.459 32.1631C378.216 32.1631 378.011 32.0791 377.843 31.9111C377.675 31.7431 377.591 31.5377 377.591 31.2951C377.591 31.0524 377.675 30.8471 377.843 30.6791C378.011 30.5111 378.216 30.4271 378.459 30.4271C378.692 30.4271 378.888 30.5111 379.047 30.6791C379.215 30.8471 379.299 31.0524 379.299 31.2951C379.299 31.5377 379.215 31.7431 379.047 31.9111C378.888 32.0791 378.692 32.1631 378.459 32.1631ZM379.075 33.4091V41.0811H377.801V33.4091H379.075ZM384.984 33.2691C385.917 33.2691 386.673 33.5537 387.252 34.1231C387.831 34.6831 388.12 35.4951 388.12 36.5591V41.0811H386.86V36.7411C386.86 35.9757 386.669 35.3924 386.286 34.9911C385.903 34.5804 385.381 34.3751 384.718 34.3751C384.046 34.3751 383.509 34.5851 383.108 35.0051C382.716 35.4251 382.52 36.0364 382.52 36.8391V41.0811H381.246V33.4091H382.52V34.5011C382.772 34.1091 383.113 33.8057 383.542 33.5911C383.981 33.3764 384.461 33.2691 384.984 33.2691ZM391.853 31.3231L391.699 38.3231H390.635L390.481 31.3231H391.853ZM391.223 41.1651C390.98 41.1651 390.775 41.0811 390.607 40.9131C390.439 40.7451 390.355 40.5397 390.355 40.2971C390.355 40.0544 390.439 39.8491 390.607 39.6811C390.775 39.5131 390.98 39.4291 391.223 39.4291C391.456 39.4291 391.652 39.5131 391.811 39.6811C391.979 39.8491 392.063 40.0544 392.063 40.2971C392.063 40.5397 391.979 40.7451 391.811 40.9131C391.652 41.0811 391.456 41.1651 391.223 41.1651Z" fill="white"/>
</svg>
