<svg width="480" height="74" viewBox="0 0 480 74" fill="none" xmlns="http://www.w3.org/2000/svg">
<path d="M0 57.9919C0 66.3419 8.954 73.1109 20 73.1109H460C471.046 73.1109 480 66.3419 480 57.9919V15.7079C480 7.35789 471.046 0.588867 460 0.588867H20C8.954 0.588867 0 7.35789 0 15.7079V57.9919Z" fill="#ED4040"/>
<path d="M53.059 40.5294H56.475V41.5654H51.785V31.8074H53.059V40.5294ZM61.174 41.6914C60.4553 41.6914 59.802 41.5281 59.214 41.2014C58.6353 40.8748 58.178 40.4128 57.842 39.8154C57.5153 39.2088 57.352 38.5088 57.352 37.7154C57.352 36.9314 57.52 36.2408 57.856 35.6434C58.2013 35.0368 58.668 34.5748 59.256 34.2574C59.844 33.9308 60.502 33.7674 61.23 33.7674C61.958 33.7674 62.616 33.9308 63.204 34.2574C63.792 34.5748 64.254 35.0321 64.59 35.6294C64.9353 36.2268 65.108 36.9221 65.108 37.7154C65.108 38.5088 64.9307 39.2088 64.576 39.8154C64.2307 40.4128 63.7593 40.8748 63.162 41.2014C62.5647 41.5281 61.902 41.6914 61.174 41.6914ZM61.174 40.5714C61.6313 40.5714 62.0607 40.4641 62.462 40.2494C62.8633 40.0348 63.1853 39.7128 63.428 39.2834C63.68 38.8541 63.806 38.3314 63.806 37.7154C63.806 37.0994 63.6847 36.5768 63.442 36.1474C63.1993 35.7181 62.882 35.4008 62.49 35.1954C62.098 34.9808 61.6733 34.8734 61.216 34.8734C60.7493 34.8734 60.32 34.9808 59.928 35.1954C59.5453 35.4008 59.2373 35.7181 59.004 36.1474C58.7707 36.5768 58.654 37.0994 58.654 37.7154C58.654 38.3408 58.766 38.8681 58.99 39.2974C59.2233 39.7268 59.5313 40.0488 59.914 40.2634C60.2967 40.4688 60.7167 40.5714 61.174 40.5714ZM69.9471 33.7674C70.6097 33.7674 71.1884 33.9121 71.6831 34.2014C72.1871 34.4908 72.5604 34.8548 72.8031 35.2934V33.8934H74.0911V41.7334C74.0911 42.4334 73.9417 43.0541 73.6431 43.5954C73.3444 44.1461 72.9151 44.5754 72.3551 44.8834C71.8044 45.1914 71.1604 45.3454 70.4231 45.3454C69.4151 45.3454 68.5751 45.1074 67.9031 44.6314C67.2311 44.1554 66.8344 43.5068 66.7131 42.6854H67.9731C68.1131 43.1521 68.4024 43.5254 68.8411 43.8054C69.2797 44.0948 69.8071 44.2394 70.4231 44.2394C71.1231 44.2394 71.6924 44.0201 72.1311 43.5814C72.5791 43.1428 72.8031 42.5268 72.8031 41.7334V40.1234C72.5511 40.5714 72.1777 40.9448 71.6831 41.2434C71.1884 41.5421 70.6097 41.6914 69.9471 41.6914C69.2657 41.6914 68.6451 41.5234 68.0851 41.1874C67.5344 40.8514 67.1004 40.3801 66.7831 39.7734C66.4657 39.1668 66.3071 38.4761 66.3071 37.7014C66.3071 36.9174 66.4657 36.2314 66.7831 35.6434C67.1004 35.0461 67.5344 34.5841 68.0851 34.2574C68.6451 33.9308 69.2657 33.7674 69.9471 33.7674ZM72.8031 37.7154C72.8031 37.1368 72.6864 36.6328 72.4531 36.2034C72.2197 35.7741 71.9024 35.4474 71.5011 35.2234C71.1091 34.9901 70.6751 34.8734 70.1991 34.8734C69.7231 34.8734 69.2891 34.9854 68.8971 35.2094C68.5051 35.4334 68.1924 35.7601 67.9591 36.1894C67.7257 36.6188 67.6091 37.1228 67.6091 37.7014C67.6091 38.2894 67.7257 38.8028 67.9591 39.2414C68.1924 39.6708 68.5051 40.0021 68.8971 40.2354C69.2891 40.4594 69.7231 40.5714 70.1991 40.5714C70.6751 40.5714 71.1091 40.4594 71.5011 40.2354C71.9024 40.0021 72.2197 39.6708 72.4531 39.2414C72.6864 38.8028 72.8031 38.2941 72.8031 37.7154ZM76.902 32.6474C76.6593 32.6474 76.454 32.5634 76.286 32.3954C76.118 32.2274 76.034 32.0221 76.034 31.7794C76.034 31.5368 76.118 31.3314 76.286 31.1634C76.454 30.9954 76.6593 30.9114 76.902 30.9114C77.1353 30.9114 77.3313 30.9954 77.49 31.1634C77.658 31.3314 77.742 31.5368 77.742 31.7794C77.742 32.0221 77.658 32.2274 77.49 32.3954C77.3313 32.5634 77.1353 32.6474 76.902 32.6474ZM77.518 33.8934V41.5654H76.244V33.8934H77.518ZM83.4273 33.7534C84.3607 33.7534 85.1167 34.0381 85.6953 34.6074C86.274 35.1674 86.5633 35.9794 86.5633 37.0434V41.5654H85.3033V37.2254C85.3033 36.4601 85.112 35.8768 84.7293 35.4754C84.3467 35.0648 83.824 34.8594 83.1613 34.8594C82.4893 34.8594 81.9527 35.0694 81.5513 35.4894C81.1593 35.9094 80.9633 36.5208 80.9633 37.3234V41.5654H79.6893V33.8934H80.9633V34.9854C81.2153 34.5934 81.556 34.2901 81.9853 34.0754C82.424 33.8608 82.9047 33.7534 83.4273 33.7534ZM93.6508 32.8434V36.1054H97.2068V37.1554H93.6508V40.5154H97.6268V41.5654H92.3768V31.7934H97.6268V32.8434H93.6508ZM100.829 35.1394C101.053 34.7008 101.37 34.3601 101.781 34.1174C102.201 33.8748 102.709 33.7534 103.307 33.7534V35.0694H102.971C101.543 35.0694 100.829 35.8441 100.829 37.3934V41.5654H99.5546V33.8934H100.829V35.1394ZM106.051 35.1394C106.275 34.7008 106.593 34.3601 107.003 34.1174C107.423 33.8748 107.932 33.7534 108.529 33.7534V35.0694H108.193C106.765 35.0694 106.051 35.8441 106.051 37.3934V41.5654H104.777V33.8934H106.051V35.1394ZM113.346 41.6914C112.627 41.6914 111.974 41.5281 111.386 41.2014C110.807 40.8748 110.35 40.4128 110.014 39.8154C109.687 39.2088 109.524 38.5088 109.524 37.7154C109.524 36.9314 109.692 36.2408 110.028 35.6434C110.373 35.0368 110.84 34.5748 111.428 34.2574C112.016 33.9308 112.674 33.7674 113.402 33.7674C114.13 33.7674 114.788 33.9308 115.376 34.2574C115.964 34.5748 116.426 35.0321 116.762 35.6294C117.107 36.2268 117.28 36.9221 117.28 37.7154C117.28 38.5088 117.103 39.2088 116.748 39.8154C116.403 40.4128 115.931 40.8748 115.334 41.2014C114.737 41.5281 114.074 41.6914 113.346 41.6914ZM113.346 40.5714C113.803 40.5714 114.233 40.4641 114.634 40.2494C115.035 40.0348 115.357 39.7128 115.6 39.2834C115.852 38.8541 115.978 38.3314 115.978 37.7154C115.978 37.0994 115.857 36.5768 115.614 36.1474C115.371 35.7181 115.054 35.4008 114.662 35.1954C114.27 34.9808 113.845 34.8734 113.388 34.8734C112.921 34.8734 112.492 34.9808 112.1 35.1954C111.717 35.4008 111.409 35.7181 111.176 36.1474C110.943 36.5768 110.826 37.0994 110.826 37.7154C110.826 38.3408 110.938 38.8681 111.162 39.2974C111.395 39.7268 111.703 40.0488 112.086 40.2634C112.469 40.4688 112.889 40.5714 113.346 40.5714ZM120.229 35.1394C120.453 34.7008 120.77 34.3601 121.181 34.1174C121.601 33.8748 122.11 33.7534 122.707 33.7534V35.0694H122.371C120.943 35.0694 120.229 35.8441 120.229 37.3934V41.5654H118.955V33.8934H120.229V35.1394ZM125.83 31.8074L125.676 38.8074H124.612L124.458 31.8074H125.83ZM125.2 41.6494C124.957 41.6494 124.752 41.5654 124.584 41.3974C124.416 41.2294 124.332 41.0241 124.332 40.7814C124.332 40.5388 124.416 40.3334 124.584 40.1654C124.752 39.9974 124.957 39.9134 125.2 39.9134C125.433 39.9134 125.629 39.9974 125.788 40.1654C125.956 40.3334 126.04 40.5388 126.04 40.7814C126.04 41.0241 125.956 41.2294 125.788 41.3974C125.629 41.5654 125.433 41.6494 125.2 41.6494ZM144.344 31.8074L141.516 41.5654H140.088L137.82 33.7114L135.468 41.5654L134.054 41.5794L131.324 31.8074H132.682L134.81 40.0814L137.162 31.8074H138.59L140.83 40.0534L142.972 31.8074H144.344ZM152.738 37.4354C152.738 37.6781 152.724 37.9348 152.696 38.2054H146.564C146.611 38.9614 146.867 39.5541 147.334 39.9834C147.81 40.4034 148.384 40.6134 149.056 40.6134C149.607 40.6134 150.064 40.4874 150.428 40.2354C150.801 39.9741 151.063 39.6288 151.212 39.1994H152.584C152.379 39.9368 151.968 40.5388 151.352 41.0054C150.736 41.4628 149.971 41.6914 149.056 41.6914C148.328 41.6914 147.675 41.5281 147.096 41.2014C146.527 40.8748 146.079 40.4128 145.752 39.8154C145.425 39.2088 145.262 38.5088 145.262 37.7154C145.262 36.9221 145.421 36.2268 145.738 35.6294C146.055 35.0321 146.499 34.5748 147.068 34.2574C147.647 33.9308 148.309 33.7674 149.056 33.7674C149.784 33.7674 150.428 33.9261 150.988 34.2434C151.548 34.5608 151.977 34.9994 152.276 35.5594C152.584 36.1101 152.738 36.7354 152.738 37.4354ZM151.422 37.1694C151.422 36.6841 151.315 36.2688 151.1 35.9234C150.885 35.5688 150.591 35.3028 150.218 35.1254C149.854 34.9388 149.448 34.8454 149 34.8454C148.356 34.8454 147.805 35.0508 147.348 35.4614C146.9 35.8721 146.643 36.4414 146.578 37.1694H151.422ZM157.676 37.7154C157.676 36.9221 157.835 36.2314 158.152 35.6434C158.47 35.0461 158.908 34.5841 159.468 34.2574C160.038 33.9308 160.686 33.7674 161.414 33.7674C162.357 33.7674 163.132 33.9961 163.738 34.4534C164.354 34.9108 164.76 35.5454 164.956 36.3574H163.584C163.454 35.8908 163.197 35.5221 162.814 35.2514C162.441 34.9808 161.974 34.8454 161.414 34.8454C160.686 34.8454 160.098 35.0974 159.65 35.6014C159.202 36.0961 158.978 36.8008 158.978 37.7154C158.978 38.6394 159.202 39.3534 159.65 39.8574C160.098 40.3614 160.686 40.6134 161.414 40.6134C161.974 40.6134 162.441 40.4828 162.814 40.2214C163.188 39.9601 163.444 39.5868 163.584 39.1014H164.956C164.751 39.8854 164.34 40.5154 163.724 40.9914C163.108 41.4581 162.338 41.6914 161.414 41.6914C160.686 41.6914 160.038 41.5281 159.468 41.2014C158.908 40.8748 158.47 40.4128 158.152 39.8154C157.835 39.2181 157.676 38.5181 157.676 37.7154ZM170.002 41.6914C169.283 41.6914 168.63 41.5281 168.042 41.2014C167.463 40.8748 167.006 40.4128 166.67 39.8154C166.343 39.2088 166.18 38.5088 166.18 37.7154C166.18 36.9314 166.348 36.2408 166.684 35.6434C167.029 35.0368 167.496 34.5748 168.084 34.2574C168.672 33.9308 169.33 33.7674 170.058 33.7674C170.786 33.7674 171.444 33.9308 172.032 34.2574C172.62 34.5748 173.082 35.0321 173.418 35.6294C173.763 36.2268 173.936 36.9221 173.936 37.7154C173.936 38.5088 173.759 39.2088 173.404 39.8154C173.059 40.4128 172.587 40.8748 171.99 41.2014C171.393 41.5281 170.73 41.6914 170.002 41.6914ZM170.002 40.5714C170.459 40.5714 170.889 40.4641 171.29 40.2494C171.691 40.0348 172.013 39.7128 172.256 39.2834C172.508 38.8541 172.634 38.3314 172.634 37.7154C172.634 37.0994 172.513 36.5768 172.27 36.1474C172.027 35.7181 171.71 35.4008 171.318 35.1954C170.926 34.9808 170.501 34.8734 170.044 34.8734C169.577 34.8734 169.148 34.9808 168.756 35.1954C168.373 35.4008 168.065 35.7181 167.832 36.1474C167.599 36.5768 167.482 37.0994 167.482 37.7154C167.482 38.3408 167.594 38.8681 167.818 39.2974C168.051 39.7268 168.359 40.0488 168.742 40.2634C169.125 40.4688 169.545 40.5714 170.002 40.5714ZM182.415 33.8934V41.5654H181.141V40.4314C180.899 40.8234 180.558 41.1314 180.119 41.3554C179.69 41.5701 179.214 41.6774 178.691 41.6774C178.094 41.6774 177.557 41.5561 177.081 41.3134C176.605 41.0614 176.227 40.6881 175.947 40.1934C175.677 39.6988 175.541 39.0968 175.541 38.3874V33.8934H176.801V38.2194C176.801 38.9754 176.993 39.5588 177.375 39.9694C177.758 40.3708 178.281 40.5714 178.943 40.5714C179.625 40.5714 180.161 40.3614 180.553 39.9414C180.945 39.5214 181.141 38.9101 181.141 38.1074V33.8934H182.415ZM185.84 31.2054V41.5654H184.566V31.2054H185.84ZM187.536 37.7014C187.536 36.9174 187.694 36.2314 188.012 35.6434C188.329 35.0461 188.763 34.5841 189.314 34.2574C189.874 33.9308 190.499 33.7674 191.19 33.7674C191.787 33.7674 192.342 33.9074 192.856 34.1874C193.369 34.4581 193.761 34.8174 194.032 35.2654V31.2054H195.32V41.5654H194.032V40.1234C193.78 40.5808 193.406 40.9588 192.912 41.2574C192.417 41.5468 191.838 41.6914 191.176 41.6914C190.494 41.6914 189.874 41.5234 189.314 41.1874C188.763 40.8514 188.329 40.3801 188.012 39.7734C187.694 39.1668 187.536 38.4761 187.536 37.7014ZM194.032 37.7154C194.032 37.1368 193.915 36.6328 193.682 36.2034C193.448 35.7741 193.131 35.4474 192.73 35.2234C192.338 34.9901 191.904 34.8734 191.428 34.8734C190.952 34.8734 190.518 34.9854 190.126 35.2094C189.734 35.4334 189.421 35.7601 189.188 36.1894C188.954 36.6188 188.838 37.1228 188.838 37.7014C188.838 38.2894 188.954 38.8028 189.188 39.2414C189.421 39.6708 189.734 40.0021 190.126 40.2354C190.518 40.4594 190.952 40.5714 191.428 40.5714C191.904 40.5714 192.338 40.4594 192.73 40.2354C193.131 40.0021 193.448 39.6708 193.682 39.2414C193.915 38.8028 194.032 38.2941 194.032 37.7154ZM201.211 33.7534C202.144 33.7534 202.9 34.0381 203.479 34.6074C204.057 35.1674 204.347 35.9794 204.347 37.0434V41.5654H203.087V37.2254C203.087 36.4601 202.895 35.8768 202.513 35.4754C202.13 35.0648 201.607 34.8594 200.945 34.8594C200.273 34.8594 199.736 35.0694 199.335 35.4894C198.943 35.9094 198.747 36.5208 198.747 37.3234V41.5654H197.473V33.8934H198.747V34.9854C198.999 34.5934 199.339 34.2901 199.769 34.0754C200.207 33.8608 200.688 33.7534 201.211 33.7534ZM206.624 31.8074H208.038L206.694 34.9854H205.798L206.624 31.8074ZM211.044 34.9434V39.4654C211.044 39.8388 211.123 40.1048 211.282 40.2634C211.441 40.4128 211.716 40.4874 212.108 40.4874H213.046V41.5654H211.898C211.189 41.5654 210.657 41.4021 210.302 41.0754C209.947 40.7488 209.77 40.2121 209.77 39.4654V34.9434H208.776V33.8934H209.77V31.9614H211.044V33.8934H213.046V34.9434H211.044ZM221.444 34.9434H219.834V41.5654H218.56V34.9434H217.566V33.8934H218.56V33.3474C218.56 32.4888 218.779 31.8634 219.218 31.4714C219.666 31.0701 220.38 30.8694 221.36 30.8694V31.9334C220.8 31.9334 220.403 32.0454 220.17 32.2694C219.946 32.4841 219.834 32.8434 219.834 33.3474V33.8934H221.444V34.9434ZM223.588 32.6474C223.345 32.6474 223.14 32.5634 222.972 32.3954C222.804 32.2274 222.72 32.0221 222.72 31.7794C222.72 31.5368 222.804 31.3314 222.972 31.1634C223.14 30.9954 223.345 30.9114 223.588 30.9114C223.821 30.9114 224.017 30.9954 224.176 31.1634C224.344 31.3314 224.428 31.5368 224.428 31.7794C224.428 32.0221 224.344 32.2274 224.176 32.3954C224.017 32.5634 223.821 32.6474 223.588 32.6474ZM224.204 33.8934V41.5654H222.93V33.8934H224.204ZM230.113 33.7534C231.046 33.7534 231.802 34.0381 232.381 34.6074C232.96 35.1674 233.249 35.9794 233.249 37.0434V41.5654H231.989V37.2254C231.989 36.4601 231.798 35.8768 231.415 35.4754C231.032 35.0648 230.51 34.8594 229.847 34.8594C229.175 34.8594 228.638 35.0694 228.237 35.4894C227.845 35.9094 227.649 36.5208 227.649 37.3234V41.5654H226.375V33.8934H227.649V34.9854C227.901 34.5934 228.242 34.2901 228.671 34.0754C229.11 33.8608 229.59 33.7534 230.113 33.7534ZM234.854 37.7014C234.854 36.9174 235.013 36.2314 235.33 35.6434C235.647 35.0461 236.081 34.5841 236.632 34.2574C237.192 33.9308 237.817 33.7674 238.508 33.7674C239.105 33.7674 239.661 33.9074 240.174 34.1874C240.687 34.4581 241.079 34.8174 241.35 35.2654V31.2054H242.638V41.5654H241.35V40.1234C241.098 40.5808 240.725 40.9588 240.23 41.2574C239.735 41.5468 239.157 41.6914 238.494 41.6914C237.813 41.6914 237.192 41.5234 236.632 41.1874C236.081 40.8514 235.647 40.3801 235.33 39.7734C235.013 39.1668 234.854 38.4761 234.854 37.7014ZM241.35 37.7154C241.35 37.1368 241.233 36.6328 241 36.2034C240.767 35.7741 240.449 35.4474 240.048 35.2234C239.656 34.9901 239.222 34.8734 238.746 34.8734C238.27 34.8734 237.836 34.9854 237.444 35.2094C237.052 35.4334 236.739 35.7601 236.506 36.1894C236.273 36.6188 236.156 37.1228 236.156 37.7014C236.156 38.2894 236.273 38.8028 236.506 39.2414C236.739 39.6708 237.052 40.0021 237.444 40.2354C237.836 40.4594 238.27 40.5714 238.746 40.5714C239.222 40.5714 239.656 40.4594 240.048 40.2354C240.449 40.0021 240.767 39.6708 241 39.2414C241.233 38.8028 241.35 38.2941 241.35 37.7154ZM248.047 37.7014C248.047 36.9174 248.206 36.2314 248.523 35.6434C248.841 35.0461 249.275 34.5841 249.825 34.2574C250.385 33.9308 251.006 33.7674 251.687 33.7674C252.359 33.7674 252.943 33.9121 253.437 34.2014C253.932 34.4908 254.301 34.8548 254.543 35.2934V33.8934H255.831V41.5654H254.543V40.1374C254.291 40.5854 253.913 40.9588 253.409 41.2574C252.915 41.5468 252.336 41.6914 251.673 41.6914C250.992 41.6914 250.376 41.5234 249.825 41.1874C249.275 40.8514 248.841 40.3801 248.523 39.7734C248.206 39.1668 248.047 38.4761 248.047 37.7014ZM254.543 37.7154C254.543 37.1368 254.427 36.6328 254.193 36.2034C253.96 35.7741 253.643 35.4474 253.241 35.2234C252.849 34.9901 252.415 34.8734 251.939 34.8734C251.463 34.8734 251.029 34.9854 250.637 35.2094C250.245 35.4334 249.933 35.7601 249.699 36.1894C249.466 36.6188 249.349 37.1228 249.349 37.7014C249.349 38.2894 249.466 38.8028 249.699 39.2414C249.933 39.6708 250.245 40.0021 250.637 40.2354C251.029 40.4594 251.463 40.5714 251.939 40.5714C252.415 40.5714 252.849 40.4594 253.241 40.2354C253.643 40.0021 253.96 39.6708 254.193 39.2414C254.427 38.8028 254.543 38.2941 254.543 37.7154ZM261.722 33.7534C262.656 33.7534 263.412 34.0381 263.99 34.6074C264.569 35.1674 264.858 35.9794 264.858 37.0434V41.5654H263.598V37.2254C263.598 36.4601 263.407 35.8768 263.024 35.4754C262.642 35.0648 262.119 34.8594 261.456 34.8594C260.784 34.8594 260.248 35.0694 259.846 35.4894C259.454 35.9094 259.258 36.5208 259.258 37.3234V41.5654H257.984V33.8934H259.258V34.9854C259.51 34.5934 259.851 34.2901 260.28 34.0754C260.719 33.8608 261.2 33.7534 261.722 33.7534ZM277.672 37.4354C277.672 37.6781 277.658 37.9348 277.63 38.2054H271.498C271.544 38.9614 271.801 39.5541 272.268 39.9834C272.744 40.4034 273.318 40.6134 273.99 40.6134C274.54 40.6134 274.998 40.4874 275.362 40.2354C275.735 39.9741 275.996 39.6288 276.146 39.1994H277.518C277.312 39.9368 276.902 40.5388 276.286 41.0054C275.67 41.4628 274.904 41.6914 273.99 41.6914C273.262 41.6914 272.608 41.5281 272.03 41.2014C271.46 40.8748 271.012 40.4128 270.686 39.8154C270.359 39.2088 270.196 38.5088 270.196 37.7154C270.196 36.9221 270.354 36.2268 270.672 35.6294C270.989 35.0321 271.432 34.5748 272.002 34.2574C272.58 33.9308 273.243 33.7674 273.99 33.7674C274.718 33.7674 275.362 33.9261 275.922 34.2434C276.482 34.5608 276.911 34.9994 277.21 35.5594C277.518 36.1101 277.672 36.7354 277.672 37.4354ZM276.356 37.1694C276.356 36.6841 276.248 36.2688 276.034 35.9234C275.819 35.5688 275.525 35.3028 275.152 35.1254C274.788 34.9388 274.382 34.8454 273.934 34.8454C273.29 34.8454 272.739 35.0508 272.282 35.4614C271.834 35.8721 271.577 36.4414 271.512 37.1694H276.356ZM283.357 41.5654L281.537 38.7094L279.787 41.5654H278.457L280.935 37.7574L278.457 33.8934H279.899L281.719 36.7354L283.455 33.8934H284.785L282.321 37.6874L284.799 41.5654H283.357ZM286.711 32.6474C286.468 32.6474 286.263 32.5634 286.095 32.3954C285.927 32.2274 285.843 32.0221 285.843 31.7794C285.843 31.5368 285.927 31.3314 286.095 31.1634C286.263 30.9954 286.468 30.9114 286.711 30.9114C286.944 30.9114 287.14 30.9954 287.299 31.1634C287.467 31.3314 287.551 31.5368 287.551 31.7794C287.551 32.0221 287.467 32.2274 287.299 32.3954C287.14 32.5634 286.944 32.6474 286.711 32.6474ZM287.327 33.8934V41.5654H286.053V33.8934H287.327ZM292.214 41.6914C291.626 41.6914 291.099 41.5934 290.632 41.3974C290.165 41.1921 289.797 40.9121 289.526 40.5574C289.255 40.1934 289.106 39.7781 289.078 39.3114H290.394C290.431 39.6941 290.609 40.0068 290.926 40.2494C291.253 40.4921 291.677 40.6134 292.2 40.6134C292.685 40.6134 293.068 40.5061 293.348 40.2914C293.628 40.0768 293.768 39.8061 293.768 39.4794C293.768 39.1434 293.619 38.8961 293.32 38.7374C293.021 38.5694 292.559 38.4061 291.934 38.2474C291.365 38.0981 290.898 37.9488 290.534 37.7994C290.179 37.6408 289.871 37.4121 289.61 37.1134C289.358 36.8054 289.232 36.4041 289.232 35.9094C289.232 35.5174 289.349 35.1581 289.582 34.8314C289.815 34.5048 290.147 34.2481 290.576 34.0614C291.005 33.8654 291.495 33.7674 292.046 33.7674C292.895 33.7674 293.581 33.9821 294.104 34.4114C294.627 34.8408 294.907 35.4288 294.944 36.1754H293.67C293.642 35.7741 293.479 35.4521 293.18 35.2094C292.891 34.9668 292.499 34.8454 292.004 34.8454C291.547 34.8454 291.183 34.9434 290.912 35.1394C290.641 35.3354 290.506 35.5921 290.506 35.9094C290.506 36.1614 290.585 36.3714 290.744 36.5394C290.912 36.6981 291.117 36.8288 291.36 36.9314C291.612 37.0248 291.957 37.1321 292.396 37.2534C292.947 37.4028 293.395 37.5521 293.74 37.7014C294.085 37.8414 294.379 38.0561 294.622 38.3454C294.874 38.6348 295.005 39.0128 295.014 39.4794C295.014 39.8994 294.897 40.2774 294.664 40.6134C294.431 40.9494 294.099 41.2154 293.67 41.4114C293.25 41.5981 292.765 41.6914 292.214 41.6914ZM298.366 34.9434V39.4654C298.366 39.8388 298.446 40.1048 298.604 40.2634C298.763 40.4128 299.038 40.4874 299.43 40.4874H300.368V41.5654H299.22C298.511 41.5654 297.979 41.4021 297.624 41.0754C297.27 40.7488 297.092 40.2121 297.092 39.4654V34.9434H296.098V33.8934H297.092V31.9614H298.366V33.8934H300.368V34.9434H298.366ZM302.57 32.6474C302.327 32.6474 302.122 32.5634 301.954 32.3954C301.786 32.2274 301.702 32.0221 301.702 31.7794C301.702 31.5368 301.786 31.3314 301.954 31.1634C302.122 30.9954 302.327 30.9114 302.57 30.9114C302.803 30.9114 302.999 30.9954 303.158 31.1634C303.326 31.3314 303.41 31.5368 303.41 31.7794C303.41 32.0221 303.326 32.2274 303.158 32.3954C302.999 32.5634 302.803 32.6474 302.57 32.6474ZM303.186 33.8934V41.5654H301.912V33.8934H303.186ZM309.095 33.7534C310.029 33.7534 310.785 34.0381 311.363 34.6074C311.942 35.1674 312.231 35.9794 312.231 37.0434V41.5654H310.971V37.2254C310.971 36.4601 310.78 35.8768 310.397 35.4754C310.015 35.0648 309.492 34.8594 308.829 34.8594C308.157 34.8594 307.621 35.0694 307.219 35.4894C306.827 35.9094 306.631 36.5208 306.631 37.3234V41.5654H305.357V33.8934H306.631V34.9854C306.883 34.5934 307.224 34.2901 307.653 34.0754C308.092 33.8608 308.573 33.7534 309.095 33.7534ZM317.476 33.7674C318.139 33.7674 318.718 33.9121 319.212 34.2014C319.716 34.4908 320.09 34.8548 320.332 35.2934V33.8934H321.62V41.7334C321.62 42.4334 321.471 43.0541 321.172 43.5954C320.874 44.1461 320.444 44.5754 319.884 44.8834C319.334 45.1914 318.69 45.3454 317.952 45.3454C316.944 45.3454 316.104 45.1074 315.432 44.6314C314.76 44.1554 314.364 43.5068 314.242 42.6854H315.502C315.642 43.1521 315.932 43.5254 316.37 43.8054C316.809 44.0948 317.336 44.2394 317.952 44.2394C318.652 44.2394 319.222 44.0201 319.66 43.5814C320.108 43.1428 320.332 42.5268 320.332 41.7334V40.1234C320.08 40.5714 319.707 40.9448 319.212 41.2434C318.718 41.5421 318.139 41.6914 317.476 41.6914C316.795 41.6914 316.174 41.5234 315.614 41.1874C315.064 40.8514 314.63 40.3801 314.312 39.7734C313.995 39.1668 313.836 38.4761 313.836 37.7014C313.836 36.9174 313.995 36.2314 314.312 35.6434C314.63 35.0461 315.064 34.5841 315.614 34.2574C316.174 33.9308 316.795 33.7674 317.476 33.7674ZM320.332 37.7154C320.332 37.1368 320.216 36.6328 319.982 36.2034C319.749 35.7741 319.432 35.4474 319.03 35.2234C318.638 34.9901 318.204 34.8734 317.728 34.8734C317.252 34.8734 316.818 34.9854 316.426 35.2094C316.034 35.4334 315.722 35.7601 315.488 36.1894C315.255 36.6188 315.138 37.1228 315.138 37.7014C315.138 38.2894 315.255 38.8028 315.488 39.2414C315.722 39.6708 316.034 40.0021 316.426 40.2354C316.818 40.4594 317.252 40.5714 317.728 40.5714C318.204 40.5714 318.638 40.4594 319.03 40.2354C319.432 40.0021 319.749 39.6708 319.982 39.2414C320.216 38.8028 320.332 38.2941 320.332 37.7154ZM328.78 32.8434V36.1054H332.336V37.1554H328.78V40.5154H332.756V41.5654H327.506V31.7934H332.756V32.8434H328.78ZM343.909 33.7534C344.507 33.7534 345.039 33.8794 345.505 34.1314C345.972 34.3741 346.341 34.7428 346.611 35.2374C346.882 35.7321 347.017 36.3341 347.017 37.0434V41.5654H345.757V37.2254C345.757 36.4601 345.566 35.8768 345.183 35.4754C344.81 35.0648 344.301 34.8594 343.657 34.8594C342.995 34.8594 342.467 35.0741 342.075 35.5034C341.683 35.9234 341.487 36.5348 341.487 37.3374V41.5654H340.227V37.2254C340.227 36.4601 340.036 35.8768 339.653 35.4754C339.28 35.0648 338.771 34.8594 338.127 34.8594C337.465 34.8594 336.937 35.0741 336.545 35.5034C336.153 35.9234 335.957 36.5348 335.957 37.3374V41.5654H334.683V33.8934H335.957V34.9994C336.209 34.5981 336.545 34.2901 336.965 34.0754C337.395 33.8608 337.866 33.7534 338.379 33.7534C339.023 33.7534 339.593 33.8981 340.087 34.1874C340.582 34.4768 340.951 34.9014 341.193 35.4614C341.408 34.9201 341.763 34.5001 342.257 34.2014C342.752 33.9028 343.303 33.7534 343.909 33.7534ZM348.631 37.7014C348.631 36.9174 348.79 36.2314 349.107 35.6434C349.425 35.0461 349.859 34.5841 350.409 34.2574C350.969 33.9308 351.59 33.7674 352.271 33.7674C352.943 33.7674 353.527 33.9121 354.021 34.2014C354.516 34.4908 354.885 34.8548 355.127 35.2934V33.8934H356.415V41.5654H355.127V40.1374C354.875 40.5854 354.497 40.9588 353.993 41.2574C353.499 41.5468 352.92 41.6914 352.257 41.6914C351.576 41.6914 350.96 41.5234 350.409 41.1874C349.859 40.8514 349.425 40.3801 349.107 39.7734C348.79 39.1668 348.631 38.4761 348.631 37.7014ZM355.127 37.7154C355.127 37.1368 355.011 36.6328 354.777 36.2034C354.544 35.7741 354.227 35.4474 353.825 35.2234C353.433 34.9901 352.999 34.8734 352.523 34.8734C352.047 34.8734 351.613 34.9854 351.221 35.2094C350.829 35.4334 350.517 35.7601 350.283 36.1894C350.05 36.6188 349.933 37.1228 349.933 37.7014C349.933 38.2894 350.05 38.8028 350.283 39.2414C350.517 39.6708 350.829 40.0021 351.221 40.2354C351.613 40.4594 352.047 40.5714 352.523 40.5714C352.999 40.5714 353.433 40.4594 353.825 40.2354C354.227 40.0021 354.544 39.6708 354.777 39.2414C355.011 38.8028 355.127 38.2941 355.127 37.7154ZM359.226 32.6474C358.984 32.6474 358.778 32.5634 358.61 32.3954C358.442 32.2274 358.358 32.0221 358.358 31.7794C358.358 31.5368 358.442 31.3314 358.61 31.1634C358.778 30.9954 358.984 30.9114 359.226 30.9114C359.46 30.9114 359.656 30.9954 359.814 31.1634C359.982 31.3314 360.066 31.5368 360.066 31.7794C360.066 32.0221 359.982 32.2274 359.814 32.3954C359.656 32.5634 359.46 32.6474 359.226 32.6474ZM359.842 33.8934V41.5654H358.568V33.8934H359.842ZM363.288 31.2054V41.5654H362.014V31.2054H363.288ZM368.715 37.7014C368.715 36.9174 368.874 36.2314 369.191 35.6434C369.509 35.0461 369.943 34.5841 370.493 34.2574C371.053 33.9308 371.674 33.7674 372.355 33.7674C373.027 33.7674 373.611 33.9121 374.105 34.2014C374.6 34.4908 374.969 34.8548 375.211 35.2934V33.8934H376.499V41.5654H375.211V40.1374C374.959 40.5854 374.581 40.9588 374.077 41.2574C373.583 41.5468 373.004 41.6914 372.341 41.6914C371.66 41.6914 371.044 41.5234 370.493 41.1874C369.943 40.8514 369.509 40.3801 369.191 39.7734C368.874 39.1668 368.715 38.4761 368.715 37.7014ZM375.211 37.7154C375.211 37.1368 375.095 36.6328 374.861 36.2034C374.628 35.7741 374.311 35.4474 373.909 35.2234C373.517 34.9901 373.083 34.8734 372.607 34.8734C372.131 34.8734 371.697 34.9854 371.305 35.2094C370.913 35.4334 370.601 35.7601 370.367 36.1894C370.134 36.6188 370.017 37.1228 370.017 37.7014C370.017 38.2894 370.134 38.8028 370.367 39.2414C370.601 39.6708 370.913 40.0021 371.305 40.2354C371.697 40.4594 372.131 40.5714 372.607 40.5714C373.083 40.5714 373.517 40.4594 373.909 40.2354C374.311 40.0021 374.628 39.6708 374.861 39.2414C375.095 38.8028 375.211 38.2941 375.211 37.7154ZM378.176 37.7014C378.176 36.9174 378.335 36.2314 378.652 35.6434C378.97 35.0461 379.404 34.5841 379.954 34.2574C380.514 33.9308 381.14 33.7674 381.83 33.7674C382.428 33.7674 382.983 33.9074 383.496 34.1874C384.01 34.4581 384.402 34.8174 384.672 35.2654V31.2054H385.96V41.5654H384.672V40.1234C384.42 40.5808 384.047 40.9588 383.552 41.2574C383.058 41.5468 382.479 41.6914 381.816 41.6914C381.135 41.6914 380.514 41.5234 379.954 41.1874C379.404 40.8514 378.97 40.3801 378.652 39.7734C378.335 39.1668 378.176 38.4761 378.176 37.7014ZM384.672 37.7154C384.672 37.1368 384.556 36.6328 384.322 36.2034C384.089 35.7741 383.772 35.4474 383.37 35.2234C382.978 34.9901 382.544 34.8734 382.068 34.8734C381.592 34.8734 381.158 34.9854 380.766 35.2094C380.374 35.4334 380.062 35.7601 379.828 36.1894C379.595 36.6188 379.478 37.1228 379.478 37.7014C379.478 38.2894 379.595 38.8028 379.828 39.2414C380.062 39.6708 380.374 40.0021 380.766 40.2354C381.158 40.4594 381.592 40.5714 382.068 40.5714C382.544 40.5714 382.978 40.4594 383.37 40.2354C383.772 40.0021 384.089 39.6708 384.322 39.2414C384.556 38.8028 384.672 38.2941 384.672 37.7154ZM387.637 37.7014C387.637 36.9174 387.796 36.2314 388.113 35.6434C388.43 35.0461 388.864 34.5841 389.415 34.2574C389.975 33.9308 390.6 33.7674 391.291 33.7674C391.888 33.7674 392.444 33.9074 392.957 34.1874C393.47 34.4581 393.862 34.8174 394.133 35.2654V31.2054H395.421V41.5654H394.133V40.1234C393.881 40.5808 393.508 40.9588 393.013 41.2574C392.518 41.5468 391.94 41.6914 391.277 41.6914C390.596 41.6914 389.975 41.5234 389.415 41.1874C388.864 40.8514 388.43 40.3801 388.113 39.7734C387.796 39.1668 387.637 38.4761 387.637 37.7014ZM394.133 37.7154C394.133 37.1368 394.016 36.6328 393.783 36.2034C393.55 35.7741 393.232 35.4474 392.831 35.2234C392.439 34.9901 392.005 34.8734 391.529 34.8734C391.053 34.8734 390.619 34.9854 390.227 35.2094C389.835 35.4334 389.522 35.7601 389.289 36.1894C389.056 36.6188 388.939 37.1228 388.939 37.7014C388.939 38.2894 389.056 38.8028 389.289 39.2414C389.522 39.6708 389.835 40.0021 390.227 40.2354C390.619 40.4594 391.053 40.5714 391.529 40.5714C392.005 40.5714 392.439 40.4594 392.831 40.2354C393.232 40.0021 393.55 39.6708 393.783 39.2414C394.016 38.8028 394.133 38.2941 394.133 37.7154ZM398.848 35.1394C399.072 34.7008 399.389 34.3601 399.8 34.1174C400.22 33.8748 400.729 33.7534 401.326 33.7534V35.0694H400.99C399.562 35.0694 398.848 35.8441 398.848 37.3934V41.5654H397.574V33.8934H398.848V35.1394ZM409.797 37.4354C409.797 37.6781 409.783 37.9348 409.755 38.2054H403.623C403.669 38.9614 403.926 39.5541 404.393 39.9834C404.869 40.4034 405.443 40.6134 406.115 40.6134C406.665 40.6134 407.123 40.4874 407.487 40.2354C407.86 39.9741 408.121 39.6288 408.271 39.1994H409.643C409.437 39.9368 409.027 40.5388 408.411 41.0054C407.795 41.4628 407.029 41.6914 406.115 41.6914C405.387 41.6914 404.733 41.5281 404.155 41.2014C403.585 40.8748 403.137 40.4128 402.811 39.8154C402.484 39.2088 402.321 38.5088 402.321 37.7154C402.321 36.9221 402.479 36.2268 402.797 35.6294C403.114 35.0321 403.557 34.5748 404.127 34.2574C404.705 33.9308 405.368 33.7674 406.115 33.7674C406.843 33.7674 407.487 33.9261 408.047 34.2434C408.607 34.5608 409.036 34.9994 409.335 35.5594C409.643 36.1101 409.797 36.7354 409.797 37.4354ZM408.481 37.1694C408.481 36.6841 408.373 36.2688 408.159 35.9234C407.944 35.5688 407.65 35.3028 407.277 35.1254C406.913 34.9388 406.507 34.8454 406.059 34.8454C405.415 34.8454 404.864 35.0508 404.407 35.4614C403.959 35.8721 403.702 36.4414 403.637 37.1694H408.481ZM414.194 41.6914C413.606 41.6914 413.079 41.5934 412.612 41.3974C412.146 41.1921 411.777 40.9121 411.506 40.5574C411.236 40.1934 411.086 39.7781 411.058 39.3114H412.374C412.412 39.6941 412.589 40.0068 412.906 40.2494C413.233 40.4921 413.658 40.6134 414.18 40.6134C414.666 40.6134 415.048 40.5061 415.328 40.2914C415.608 40.0768 415.748 39.8061 415.748 39.4794C415.748 39.1434 415.599 38.8961 415.3 38.7374C415.002 38.5694 414.54 38.4061 413.914 38.2474C413.345 38.0981 412.878 37.9488 412.514 37.7994C412.16 37.6408 411.852 37.4121 411.59 37.1134C411.338 36.8054 411.212 36.4041 411.212 35.9094C411.212 35.5174 411.329 35.1581 411.562 34.8314C411.796 34.5048 412.127 34.2481 412.556 34.0614C412.986 33.8654 413.476 33.7674 414.026 33.7674C414.876 33.7674 415.562 33.9821 416.084 34.4114C416.607 34.8408 416.887 35.4288 416.924 36.1754H415.65C415.622 35.7741 415.459 35.4521 415.16 35.2094C414.871 34.9668 414.479 34.8454 413.984 34.8454C413.527 34.8454 413.163 34.9434 412.892 35.1394C412.622 35.3354 412.486 35.5921 412.486 35.9094C412.486 36.1614 412.566 36.3714 412.724 36.5394C412.892 36.6981 413.098 36.8288 413.34 36.9314C413.592 37.0248 413.938 37.1321 414.376 37.2534C414.927 37.4028 415.375 37.5521 415.72 37.7014C416.066 37.8414 416.36 38.0561 416.602 38.3454C416.854 38.6348 416.985 39.0128 416.994 39.4794C416.994 39.8994 416.878 40.2774 416.644 40.6134C416.411 40.9494 416.08 41.2154 415.65 41.4114C415.23 41.5981 414.745 41.6914 414.194 41.6914ZM421.509 41.6914C420.921 41.6914 420.394 41.5934 419.927 41.3974C419.46 41.1921 419.092 40.9121 418.821 40.5574C418.55 40.1934 418.401 39.7781 418.373 39.3114H419.689C419.726 39.6941 419.904 40.0068 420.221 40.2494C420.548 40.4921 420.972 40.6134 421.495 40.6134C421.98 40.6134 422.363 40.5061 422.643 40.2914C422.923 40.0768 423.063 39.8061 423.063 39.4794C423.063 39.1434 422.914 38.8961 422.615 38.7374C422.316 38.5694 421.854 38.4061 421.229 38.2474C420.66 38.0981 420.193 37.9488 419.829 37.7994C419.474 37.6408 419.166 37.4121 418.905 37.1134C418.653 36.8054 418.527 36.4041 418.527 35.9094C418.527 35.5174 418.644 35.1581 418.877 34.8314C419.11 34.5048 419.442 34.2481 419.871 34.0614C420.3 33.8654 420.79 33.7674 421.341 33.7674C422.19 33.7674 422.876 33.9821 423.399 34.4114C423.922 34.8408 424.202 35.4288 424.239 36.1754H422.965C422.937 35.7741 422.774 35.4521 422.475 35.2094C422.186 34.9668 421.794 34.8454 421.299 34.8454C420.842 34.8454 420.478 34.9434 420.207 35.1394C419.936 35.3354 419.801 35.5921 419.801 35.9094C419.801 36.1614 419.88 36.3714 420.039 36.5394C420.207 36.6981 420.412 36.8288 420.655 36.9314C420.907 37.0248 421.252 37.1321 421.691 37.2534C422.242 37.4028 422.69 37.5521 423.035 37.7014C423.38 37.8414 423.674 38.0561 423.917 38.3454C424.169 38.6348 424.3 39.0128 424.309 39.4794C424.309 39.8994 424.192 40.2774 423.959 40.6134C423.726 40.9494 423.394 41.2154 422.965 41.4114C422.545 41.5981 422.06 41.6914 421.509 41.6914ZM427.759 31.8074L427.605 38.8074H426.541L426.387 31.8074H427.759ZM427.129 41.6494C426.887 41.6494 426.681 41.5654 426.513 41.3974C426.345 41.2294 426.261 41.0241 426.261 40.7814C426.261 40.5388 426.345 40.3334 426.513 40.1654C426.681 39.9974 426.887 39.9134 427.129 39.9134C427.363 39.9134 427.559 39.9974 427.717 40.1654C427.885 40.3334 427.969 40.5388 427.969 40.7814C427.969 41.0241 427.885 41.2294 427.717 41.3974C427.559 41.5654 427.363 41.6494 427.129 41.6494Z" fill="white"/>
</svg>
