<svg width="73" height="66" viewBox="0 0 73 66" fill="none" xmlns="http://www.w3.org/2000/svg">
<path fill-rule="evenodd" clip-rule="evenodd" d="M72.3094 0.713867L72.1414 41.3519C72.0854 54.9069 61.0814 65.8649 47.5274 65.8649H0.857422V25.3829C0.857422 11.7739 11.9054 0.747866 25.5134 0.768866C54.5264 0.812866 72.3094 0.713867 72.3094 0.713867Z" fill="#21212B"/>
<path fill-rule="evenodd" clip-rule="evenodd" d="M44.7984 55.374C44.5574 55.413 43.5234 55.581 43.4544 55.581H16.6934L16.4024 55.291V38.535H21.8644V50.502H43.4554C43.9364 50.502 45.6874 49.832 46.2074 49.571C48.7514 48.299 50.8674 44.798 50.8754 41.952L32.8454 22.91H40.3434L56.5554 39.201C56.8544 39.662 56.7914 41.811 56.7444 42.506C56.3004 49.074 51.3554 54.312 44.7994 55.373L44.7984 55.374ZM51.2764 16.078H29.4914C29.0754 16.078 27.3444 16.728 26.8894 16.964C24.4404 18.237 22.2704 21.87 22.2624 24.626L40.6394 43.382H33.1414C31.9874 42.279 29.1974 39.495 28.0414 38.393C25.5724 36.039 22.9464 33.651 20.4684 31.242C19.1084 29.92 17.7674 28.562 16.4764 27.175C15.8134 21.041 18.6234 15.341 24.2174 12.509C25.3554 11.933 28.3004 10.998 29.4904 10.998H56.7364V28.044H51.2744V16.077L51.2764 16.078Z" fill="url(#paint0_linear_239_1529)"/>
<defs>
<linearGradient id="paint0_linear_239_1529" x1="16.3824" y1="33.29" x2="56.7834" y2="33.29" gradientUnits="userSpaceOnUse">
<stop stop-color="#007F7D"/>
<stop offset="0.586" stop-color="#59CCA4"/>
<stop offset="1" stop-color="#94FFBF"/>
</linearGradient>
</defs>
</svg>
